<svg width="39" height="39" viewBox="0 0 39 39" fill="none" xmlns="http://www.w3.org/2000/svg">
<g clip-path="url(#clip0_7_759)">
<path d="M18.135 19.002L16.9698 17.7898C16.5219 17.3241 15.9074 17.0554 15.2615 17.0426C14.6155 17.0298 13.9909 17.274 13.5248 17.7215V17.7215C13.294 17.9433 13.1092 18.2084 12.9808 18.5017C12.8525 18.795 12.7832 19.1106 12.7768 19.4307C12.7705 19.7507 12.8273 20.0689 12.9439 20.367C13.0605 20.6651 13.2347 20.9374 13.4566 21.1681L15.34 23.1279C15.6906 23.4992 16.1118 23.7967 16.5789 24.0032C17.046 24.2097 17.5496 24.3209 18.0602 24.3304H18.1203C19.1326 24.3275 20.1029 23.9258 20.8211 23.2124L27.2577 16.7741C27.7147 16.317 27.9714 15.6972 27.9714 15.0508C27.9714 14.4045 27.7147 13.7846 27.2577 13.3275V13.3275C27.0313 13.101 26.7626 12.9213 26.4667 12.7987C26.1709 12.6761 25.8538 12.613 25.5336 12.613C25.2134 12.613 24.8963 12.6761 24.6004 12.7987C24.3046 12.9213 24.0358 13.101 23.8095 13.3275L18.135 19.002Z" fill="#140E0E"/>
<path d="M19.4999 38.9985C19.159 38.9985 18.8219 38.9271 18.5103 38.7888C17.8749 38.511 3.10206 31.7981 3.10206 19.4984V11.7748C3.10003 9.89841 3.6895 8.06909 4.78667 6.54688C5.88385 5.02466 7.43291 3.88699 9.21368 3.29557L18.7281 0.123573C19.2293 -0.0421677 19.7706 -0.0421677 20.2718 0.123573L29.7862 3.29557C31.5668 3.88721 33.1157 5.02493 34.2129 6.5471C35.31 8.06927 35.8996 9.89847 35.8978 11.7748V19.4984C35.8978 33.5027 20.9088 38.6605 20.2718 38.8733C20.023 38.9566 19.7623 38.9988 19.4999 38.9985V38.9985ZM19.4999 5.00507L10.7558 7.92032C9.94666 8.18982 9.24286 8.70713 8.74412 9.39894C8.24539 10.0908 7.97702 10.922 7.97706 11.7748V19.4984C7.97706 27.1928 16.7862 32.4205 19.6251 33.9041C22.4802 32.713 31.0228 28.4067 31.0228 19.4984V11.7748C31.0228 10.922 30.7545 10.0908 30.2557 9.39894C29.757 8.70713 29.0532 8.18982 28.2441 7.92032L19.4999 5.00507Z" fill="#140E0E"/>
</g>
<defs>
<clipPath id="clip0_7_759">
<rect width="39" height="39" fill="white"/>
</clipPath>
</defs>
</svg>
