<svg width="99" height="74" viewBox="0 0 99 74" fill="none" xmlns="http://www.w3.org/2000/svg">
<path d="M96 40.7779C89.9956 38.8741 78.8684 31.3336 59.2895 42.6664C54.1429 40.4451 44.6053 35.1114 29.9211 44.5553C28.2054 39.1614 27.8623 26.8829 29.9211 16.2218C30.7789 14.6353 34.3124 13.5121 44.6053 21.8887L56.8421 12.4443C55.9843 8.31938 49.5 3 29.9211 3C22.5789 3 15.8773 7.84555 12.7895 16.222C8.92958 24.7891 3 44.5555 3 55.889C2.99998 59.3793 9.11842 67.2226 32.3684 67.2226C37.2632 67.2226 51.5808 67.6478 69.0789 61.5557L83.7632 71" stroke="white" stroke-width="5" stroke-linecap="round" stroke-linejoin="round"/>
</svg>
