<svg width="61" height="79" viewBox="0 0 61 79" fill="none" xmlns="http://www.w3.org/2000/svg">
    <rect x="0.730469" y="0.724045" width="59.9479" height="15.724" rx="7.86202" fill="#3A6AD6"/>
    <path d="M16.3683 4.60154C16.0161 4.60154 15.7008 4.67115 15.4224 4.81037C15.1521 4.9496 14.9228 5.15024 14.7345 5.41231C14.5461 5.66619 14.4028 5.97739 14.3045 6.34592C14.2144 6.71446 14.1694 7.12803 14.1694 7.58665C14.1694 8.20906 14.2431 8.74138 14.3905 9.18362C14.5461 9.61767 14.7877 9.94935 15.1153 10.1787C15.4429 10.408 15.8605 10.5226 16.3683 10.5226C16.7286 10.5226 17.0849 10.4817 17.437 10.3998C17.7974 10.3179 18.1864 10.2032 18.6041 10.0558V11.6159C18.2192 11.7715 17.8383 11.8862 17.4616 11.9599C17.0849 12.0336 16.6631 12.0705 16.1963 12.0705C15.2955 12.0705 14.5502 11.8862 13.9606 11.5177C13.3791 11.1409 12.9491 10.6168 12.6707 9.94526C12.3922 9.26552 12.253 8.47522 12.253 7.57437C12.253 6.91101 12.3431 6.30498 12.5233 5.75627C12.7035 5.19938 12.9655 4.72029 13.3095 4.31899C13.6616 3.9177 14.0916 3.6065 14.5993 3.38538C15.1153 3.16426 15.7049 3.0537 16.3683 3.0537C16.8024 3.0537 17.2364 3.11103 17.6705 3.22568C18.1127 3.33215 18.5345 3.47956 18.9357 3.66792L18.3338 5.1789C18.0062 5.0233 17.6745 4.88817 17.3388 4.77352C17.0112 4.65886 16.6877 4.60154 16.3683 4.60154ZM26.3521 5.24033V10.6086H27.3348V14.3554H25.6887V11.9476H21.1803V14.3554H19.5342V10.6086H20.0993C20.3941 10.1582 20.6439 9.64634 20.8487 9.07306C21.0534 8.4916 21.2172 7.87329 21.34 7.21812C21.4629 6.56295 21.553 5.90368 21.6103 5.24033H26.3521ZM23.1458 6.61618C23.0803 7.10756 22.9984 7.58665 22.9002 8.05346C22.8019 8.51208 22.679 8.95431 22.5316 9.38017C22.3924 9.80603 22.2204 10.2155 22.0157 10.6086H24.5217V6.61618H23.1458ZM31.2298 5.1052C32.1306 5.1052 32.8185 5.30175 33.2935 5.69485C33.7767 6.07976 34.0183 6.67351 34.0183 7.47609V11.9476H32.7407L32.3845 11.0386H32.3354C32.147 11.2761 31.9504 11.4726 31.7457 11.6282C31.5492 11.7838 31.3198 11.8944 31.0578 11.9599C30.8039 12.0336 30.4886 12.0705 30.1119 12.0705C29.7188 12.0705 29.3625 11.9968 29.0431 11.8493C28.7319 11.6937 28.4862 11.4603 28.3061 11.1491C28.1259 10.8297 28.0358 10.4284 28.0358 9.94526C28.0358 9.23276 28.2856 8.70863 28.7852 8.37285C29.2847 8.02889 30.0341 7.84053 31.0332 7.80777L32.2002 7.77092V7.47609C32.2002 7.12394 32.106 6.86596 31.9177 6.70217C31.7375 6.53838 31.4836 6.45648 31.156 6.45648C30.8285 6.45648 30.5091 6.50562 30.1979 6.6039C29.8867 6.69398 29.5755 6.80864 29.2643 6.94786L28.6623 5.70713C29.0227 5.51877 29.4199 5.37136 29.8539 5.26489C30.2961 5.15843 30.7548 5.1052 31.2298 5.1052ZM31.4877 8.86423C30.8981 8.88061 30.4886 8.98707 30.2593 9.18362C30.03 9.38017 29.9153 9.63815 29.9153 9.95754C29.9153 10.236 29.9972 10.4366 30.161 10.5595C30.3248 10.6741 30.5377 10.7315 30.7998 10.7315C31.1929 10.7315 31.5246 10.6168 31.7948 10.3875C32.0651 10.15 32.2002 9.81832 32.2002 9.39246V8.83966L31.4877 8.86423ZM41.4444 6.61618H39.2455V11.9476H37.4152V6.61618H35.2162V5.24033H41.4444V6.61618ZM45.8021 7.83234C46.4901 7.83234 47.0592 7.90604 47.5097 8.05346C47.9601 8.19268 48.2918 8.40971 48.5047 8.70453C48.7258 8.99936 48.8364 9.36789 48.8364 9.81013C48.8364 10.2442 48.734 10.6209 48.5293 10.9403C48.3327 11.2597 48.0174 11.5095 47.5834 11.6896C47.1493 11.8616 46.5802 11.9476 45.8758 11.9476H42.6819V5.24033H44.5123V7.83234H45.8021ZM47.006 9.8347C47.006 9.57263 46.8996 9.38427 46.6866 9.26961C46.4819 9.15496 46.1748 9.09763 45.7653 9.09763H44.5123V10.6823H45.7899C46.1502 10.6823 46.4409 10.6168 46.6621 10.4858C46.8914 10.3547 47.006 10.1377 47.006 9.8347Z" fill="white"/>
    <rect x="28.9658" y="19.0185" width="3.40184" height="10.8859" fill="black"/>
    <path d="M30.8967 36.1218L26.305 27.0219L35.1416 26.8551L30.8967 36.1218Z" fill="black"/>
    <path d="M37.1453 44C39.405 44 41.2562 45.7725 41.4198 48.0206L41.4316 48.3449V74.4143C41.4316 76.705 39.6831 78.5815 37.4652 78.7473L37.1453 78.7593H24.2863C22.0267 78.7593 20.1754 76.9869 20.0118 74.7386L20 74.4143V48.3449C20 46.0544 21.7486 44.1778 23.9664 44.0119L24.2863 44H37.1453ZM37.1453 46.1725H24.2863C23.1872 46.1725 22.2814 47.0111 22.1576 48.0916L22.1432 48.3449V74.4143C22.1432 75.5285 22.9705 76.4467 24.0364 76.5722L24.2863 76.5868H37.1453C38.2444 76.5868 39.1502 75.7482 39.274 74.6677L39.2884 74.4143V48.3449C39.2884 47.2308 38.4611 46.3126 37.3952 46.1871L37.1453 46.1725ZM32.8589 70.0694C33.4507 70.0694 33.9305 70.5559 33.9305 71.1557C33.9305 71.6888 33.5514 72.1324 33.0515 72.2244L32.8589 72.2419H28.5726C27.9808 72.2419 27.5011 71.7555 27.5011 71.1557C27.5011 70.6225 27.8801 70.1789 28.38 70.0869L28.5726 70.0694H32.8589Z" fill="#212121"/>
</svg>
