<svg width="36" height="33" viewBox="0 0 36 33" fill="none" xmlns="http://www.w3.org/2000/svg">
<g clip-path="url(#clip0_4_244)">
<path d="M11.07 14.7019C12.7186 18.0369 16.248 19.4885 17.9999 19.4885C19.1518 19.4885 21.0722 18.8604 22.7211 17.4826C22.1182 17.5211 21.4738 17.5407 20.7852 17.5407C20.6236 17.5407 20.4541 17.5393 20.2729 17.5367C19.9258 17.7818 19.4958 17.92 19.0495 17.92H17.5823C16.4766 17.92 15.5771 17.0954 15.5771 16.0818C15.5771 15.0683 16.4766 14.2437 17.5823 14.2437H19.0495C19.5796 14.2437 20.0753 14.4331 20.443 14.7597C20.5652 14.761 20.6856 14.7615 20.8038 14.7615C22.6979 14.7615 23.9461 14.6023 24.7626 14.4102C24.6567 14.174 24.599 13.9155 24.599 13.6456V8.98512C24.599 8.50031 24.7953 8.03558 25.1347 7.67656C24.9536 6.38406 24.6248 5.39731 24.1342 4.66942C23.1232 3.16943 21.1739 2.47086 17.9999 2.47086C15.3668 2.47086 13.5485 2.9719 12.4413 4.00258C11.5829 4.80158 11.0855 5.94166 10.853 7.66347C11.2001 8.02383 11.4008 8.49331 11.4008 8.98512V13.6456C11.4009 14.0334 11.2793 14.3953 11.07 14.7019Z" fill="white"/>
<path d="M7.4626 14.7459H9.22268C9.88528 14.7459 10.4229 14.2532 10.4229 13.6456V8.98513C10.4229 8.57913 10.1823 8.22541 9.82552 8.03479C10.2185 4.2186 11.8251 1.57414 18.0001 1.57414C21.5462 1.57414 23.7599 2.40801 24.9665 4.19815C25.6686 5.23987 26.0064 6.58537 26.1642 8.04052C25.813 8.23249 25.5773 8.58308 25.5773 8.98504V13.6455C25.5773 14.1694 25.9772 14.6069 26.5121 14.7178C25.7362 15.183 24.1299 15.6581 20.8039 15.6581C20.5345 15.6581 20.2537 15.655 19.9612 15.6485C19.7901 15.3468 19.4465 15.1403 19.0498 15.1403H17.5827C17.0155 15.1403 16.5556 15.5618 16.5556 16.0818C16.5556 16.6017 17.0155 17.0232 17.5827 17.0232H19.0498C19.3925 17.0232 19.6954 16.8687 19.8818 16.6323C20.1907 16.6395 20.4931 16.644 20.7854 16.644C24.5345 16.6439 26.9177 16.0573 27.883 14.8934C27.9241 14.844 27.9615 14.7946 27.9957 14.7459H28.5379C29.2006 14.7459 29.7381 14.2532 29.7381 13.6456V8.98513C29.7381 8.37757 29.2007 7.88496 28.5379 7.88496H27.8758C27.6896 6.12683 27.2767 4.63016 26.4275 3.37056C24.8988 1.10251 22.142 0 18 0C13.8578 0 11.1012 1.10251 9.57247 3.37065C8.72334 4.63025 8.31065 6.12674 8.12432 7.88505H7.4625C6.7996 7.88505 6.26221 8.37757 6.26221 8.98522V13.6457C6.26221 14.2532 6.7997 14.7459 7.4626 14.7459Z" fill="white"/>
<path d="M32.5107 28.4503C32.1117 26.1758 31.2901 23.2459 29.6424 22.2049C28.5189 21.4947 24.5965 19.5736 22.9216 18.7534L22.8864 18.7362C22.6947 18.6423 22.4608 18.6611 22.2899 18.784C21.4113 19.4163 20.4494 19.8422 19.431 20.0499C19.251 20.0866 19.1032 20.204 19.0378 20.362L18.0001 22.869L16.9623 20.362C16.8969 20.2039 16.7491 20.0866 16.5691 20.0499C15.5508 19.8422 14.5887 19.4163 13.7099 18.784C13.5391 18.661 13.3051 18.6422 13.1135 18.7362C11.4573 19.5473 7.48415 21.5087 6.3624 22.2019C4.46489 23.3737 3.6362 27.6125 3.48938 28.4504C3.4748 28.5335 3.48322 28.6185 3.51383 28.6977C3.58172 28.8735 5.32224 33.0001 18 33.0001C30.6775 33.0001 32.4182 28.8735 32.4862 28.6978C32.5169 28.6184 32.5253 28.5333 32.5107 28.4503ZM26.6078 25.8384H21.5866V24.869H26.6078V25.8384Z" fill="white"/>
</g>
<defs>
<clipPath id="clip0_4_244">
<rect width="36" height="33" fill="white"/>
</clipPath>
</defs>
</svg>
