<svg width="39" height="39" viewBox="0 0 39 39" fill="none" xmlns="http://www.w3.org/2000/svg">
<g clip-path="url(#clip0_7_780)">
<path d="M16.9232 16.9232C16.3138 16.3139 15.4873 15.9716 14.6255 15.9716C13.7637 15.9716 12.9372 16.3139 12.3277 16.9232L8.12549 21.1254V30.8754H30.8755L16.9232 16.9232Z" fill="black"/>
<path d="M26 17.063C28.2436 17.063 30.0625 15.2441 30.0625 13.0005C30.0625 10.7568 28.2436 8.93799 26 8.93799C23.7563 8.93799 21.9375 10.7568 21.9375 13.0005C21.9375 15.2441 23.7563 17.063 26 17.063Z" fill="black"/>
<path d="M34.125 34.1255H26V39.0005H35.0122C36.0697 38.9992 37.0835 38.5785 37.8311 37.8305C38.5788 37.0826 38.9991 36.0687 39 35.0112V26.0005H34.125V34.1255Z" fill="black"/>
<path d="M4.875 4.875H13V0H3.98775C2.93025 0.00129086 1.91645 0.422065 1.16884 1.16998C0.421221 1.9179 0.000860021 2.93187 0 3.98937L0 13H4.875V4.875Z" fill="black"/>
<path d="M4.875 26.0005H0V35.0112C0.000860021 36.0687 0.421221 37.0826 1.16884 37.8305C1.91645 38.5785 2.93025 38.9992 3.98775 39.0005H13V34.1255H4.875V26.0005Z" fill="black"/>
<path d="M35.0122 0H26V4.875H34.125V13H39V3.98937C38.9991 2.93187 38.5788 1.9179 37.8311 1.16998C37.0835 0.422065 36.0697 0.00129086 35.0122 0V0Z" fill="black"/>
</g>
<defs>
<clipPath id="clip0_7_780">
<rect width="39" height="39" fill="white"/>
</clipPath>
</defs>
</svg>
