<svg width="80" height="45" viewBox="0 0 80 45" fill="none" xmlns="http://www.w3.org/2000/svg">
<path d="M3.68 30.768V37.488C3.68 38.16 3.84533 38.6773 4.176 39.04C4.50667 39.4027 4.992 39.584 5.632 39.584C6.272 39.584 6.76267 39.4027 7.104 39.04C7.44533 38.6773 7.616 38.16 7.616 37.488V30.768H10.352V37.472C10.352 38.4747 10.1387 39.3227 9.712 40.016C9.28533 40.7093 8.70933 41.232 7.984 41.584C7.26933 41.936 6.46933 42.112 5.584 42.112C4.69867 42.112 3.904 41.9413 3.2 41.6C2.50667 41.248 1.95733 40.7253 1.552 40.032C1.14667 39.328 0.944 38.4747 0.944 37.472V30.768H3.68ZM24.9933 30.768V42H22.2573V35.264L19.7453 42H17.5373L15.0093 35.248V42H12.2733V30.768H15.5052L18.6573 38.544L21.7773 30.768H24.9933ZM33.7608 36.24C34.4114 36.3787 34.9341 36.704 35.3288 37.216C35.7234 37.7173 35.9208 38.2933 35.9208 38.944C35.9208 39.8827 35.5901 40.6293 34.9288 41.184C34.2781 41.728 33.3661 42 32.1928 42H26.9608V30.768H32.0168C33.1581 30.768 34.0488 31.0293 34.6888 31.552C35.3394 32.0747 35.6648 32.784 35.6648 33.68C35.6648 34.3413 35.4888 34.8907 35.1368 35.328C34.7954 35.7653 34.3368 36.0693 33.7608 36.24ZM29.6968 35.312H31.4888C31.9368 35.312 32.2781 35.216 32.5128 35.024C32.7581 34.8213 32.8808 34.528 32.8808 34.144C32.8808 33.76 32.7581 33.4667 32.5128 33.264C32.2781 33.0613 31.9368 32.96 31.4888 32.96H29.6968V35.312ZM31.7128 39.792C32.1714 39.792 32.5234 39.6907 32.7688 39.488C33.0248 39.2747 33.1528 38.9707 33.1528 38.576C33.1528 38.1813 33.0194 37.872 32.7528 37.648C32.4968 37.424 32.1394 37.312 31.6808 37.312H29.6968V39.792H31.7128ZM43.2356 42L40.8996 37.76H40.2436V42H37.5076V30.768H42.0996C42.985 30.768 43.737 30.9227 44.3556 31.232C44.985 31.5413 45.4543 31.968 45.7636 32.512C46.073 33.0453 46.2276 33.6427 46.2276 34.304C46.2276 35.0507 46.0143 35.7173 45.5876 36.304C45.1716 36.8907 44.553 37.3067 43.7316 37.552L46.3236 42H43.2356ZM40.2436 35.824H41.9396C42.441 35.824 42.8143 35.7013 43.0596 35.456C43.3156 35.2107 43.4436 34.864 43.4436 34.416C43.4436 33.9893 43.3156 33.6533 43.0596 33.408C42.8143 33.1627 42.441 33.04 41.9396 33.04H40.2436V35.824ZM50.6811 32.96V35.232H54.3451V37.344H50.6811V39.808H54.8251V42H47.9451V30.768H54.8251V32.96H50.6811ZM66.6494 42H63.9134L59.3374 35.072V42H56.6014V30.768H59.3374L63.9134 37.728V30.768H66.6494V42ZM76.7126 30.768V32.96H73.7366V42H71.0006V32.96H68.0246V30.768H76.7126Z" fill="#396AD5"/>
<path d="M38.8784 2.93558C19.2699 3.97195 13.4559 18.9505 13 26.3103C18.9088 20.5877 24.5441 23.9259 26.6231 26.3103C31.7003 20.9932 37.1641 23.5691 39.2614 25.5217V28H40.7386V25.5217C46.3848 20.7905 51.6261 24.1136 53.541 26.3666C59.1435 20.599 64.848 23.9634 67 26.3666C65.5119 8.20755 49.0547 3.17965 41.0122 2.93558C41.0559 1.08814 40.3191 0.926672 39.9179 1.02054C38.9988 0.840306 38.8237 2.18459 38.8784 2.93558Z" fill="#396AD5" stroke="#396AD5"/>
</svg>
