<svg width="40" height="40" viewBox="0 0 40 40" fill="none" xmlns="http://www.w3.org/2000/svg">
<g clip-path="url(#clip0_4_503)">
<path d="M5.00016 5H35.0002C35.4422 5 35.8661 5.17559 36.1787 5.48816C36.4912 5.80072 36.6668 6.22464 36.6668 6.66667V33.3333C36.6668 33.7754 36.4912 34.1993 36.1787 34.5118C35.8661 34.8244 35.4422 35 35.0002 35H5.00016C4.55814 35 4.13421 34.8244 3.82165 34.5118C3.50909 34.1993 3.3335 33.7754 3.3335 33.3333V6.66667C3.3335 6.22464 3.50909 5.80072 3.82165 5.48816C4.13421 5.17559 4.55814 5 5.00016 5ZM20.1002 19.4717L9.4135 10.3967L7.25516 12.9367L20.1218 23.8617L32.7568 12.9283L30.5768 10.4067L20.1018 19.4717H20.1002Z" fill="white"/>
</g>
<defs>
<clipPath id="clip0_4_503">
<rect width="40" height="40" fill="white"/>
</clipPath>
</defs>
</svg>
