<svg xmlns="http://www.w3.org/2000/svg" fill="none" viewBox="0.1 -2.8 98.31 102">
<g clip-path="url(#clip0_142_407)">
<rect x="15.4146" y="31.2957" width="34.664" height="14.3401" rx="0.557151" transform="rotate(45 15.4146 31.2957)" fill="white"/>
<rect x="25.79" y="20.9204" width="19.5065" height="10.489" rx="0.557151" transform="rotate(45 25.79 20.9204)" fill="white"/>
<rect x="28.2197" y="5.25807" width="38.22" height="10.489" rx="0.557151" transform="rotate(45 28.2197 5.25807)" fill="white"/>
<rect x="62.7734" y="29.1289" width="10.7048" height="18.043" rx="0.557151" transform="rotate(45 62.7734 29.1289)" fill="white"/>
<rect x="77.1611" y="14.7414" width="10.7048" height="18.043" rx="0.557151" transform="rotate(45 77.1611 14.7414)" fill="white"/>
<rect x="11.1025" y="50.5222" width="8.96033" height="14.5315" rx="0.557151" transform="rotate(45 11.1025 50.5222)" fill="white"/>
<rect x="42.1621" y="37.2928" width="19.5065" height="12.7112" rx="0.557151" transform="rotate(45 42.1621 37.2928)" fill="white"/>
<rect x="68.0801" y="51.0295" width="14.9592" height="36.2092" rx="0.557151" transform="rotate(45 68.0801 51.0295)" fill="white"/>
<rect x="80.5283" y="30.3259" width="14.9592" height="22.9171" rx="0.557151" transform="rotate(45 80.5283 30.3259)" fill="white"/>
<rect x="61.3999" y="-2.80297" width="14.9592" height="26.8579" rx="0.557151" transform="rotate(45 61.3999 -2.80297)" fill="white"/>
<rect x="73.7354" y="9.53238" width="3.40967" height="26.8579" rx="0.557151" transform="rotate(45 73.7354 9.53238)" fill="white"/>
<rect x="15.5303" y="34.0063" width="29.1855" height="10.7916" rx="1.1143" transform="rotate(45 15.5303 34.0063)" fill="white"/>
<rect x="25.9111" y="22.8127" width="10.4028" height="7.98404" rx="1.1143" transform="rotate(45 25.9111 22.8127)" fill="white"/>
<rect x="34.5225" y="31.4243" width="4.58118" height="4.4942" rx="1.1143" transform="rotate(45 34.5225 31.4243)" fill="white"/>
<rect x="28.7412" y="7.48272" width="34.3366" height="8.08009" rx="1.1143" transform="rotate(45 28.7412 7.48272)" fill="white"/>
<rect x="63.1787" y="30.9661" width="7.53348" height="16.0179" rx="1.1143" transform="rotate(45 63.1787 30.9661)" fill="white"/>
<rect x="77.5659" y="16.5786" width="7.53348" height="16.0179" rx="1.1143" transform="rotate(45 77.5659 16.5786)" fill="white"/>
<rect x="11.188" y="53.2623" width="4.96403" height="10.7774" rx="1.1143" transform="rotate(45 11.188 53.2623)" fill="white"/>
<rect x="42.3179" y="39.3796" width="16.3352" height="9.12343" rx="1.1143" transform="rotate(45 42.3179 39.3796)" fill="white"/>
<rect x="68.6021" y="53.5014" width="10.5947" height="12.2142" rx="1.1143" transform="rotate(45 68.6021 53.5014)" fill="white"/>
<rect x="58.5288" y="63.5744" width="10.5947" height="12.2142" rx="1.1143" transform="rotate(45 58.5288 63.5744)" fill="white"/>
<rect x="48.4971" y="72.5882" width="10.5947" height="5.01803" rx="1.1143" transform="rotate(45 48.4971 72.5882)" fill="white"/>
<rect x="80.9121" y="33.0281" width="10.5947" height="20.0774" rx="1.1143" transform="rotate(45 80.9121 33.0281)" fill="white"/>
<rect x="62.1802" y="-1.57555" width="12.1202" height="25.8588" rx="1.1143" transform="rotate(45 62.1802 -1.57555)" fill="white"/>
<rect x="73.1777" y="11.6053" width="1.26664" height="24.1381" rx="0.633321" transform="rotate(45 73.1777 11.6053)" fill="white"/>
<path d="M23.6567 17.2094L57.6517 51.0595L42.2706 66.5926" stroke="black" stroke-width="0.557151" stroke-linecap="round" stroke-linejoin="round"/>
<circle cx="22.4784" cy="14.757" r="5.83632" transform="rotate(5.69898 22.4784 14.757)" fill="#3A6AD6"/>
<path d="M32.0875 68.9226L37.5377 76.5768H26.6372L32.0875 68.9226Z" fill="#3A6AD6"/>
<path d="M17.4521 57.2302C17.4521 56.3605 18.1572 55.6555 19.0269 55.6555H45.8136C46.6833 55.6555 47.3883 56.3605 47.3883 57.2302V69.7292C47.3883 70.5989 46.6833 71.3039 45.8136 71.3039H19.0269C18.1572 71.3039 17.4521 70.5989 17.4521 69.7292V57.2302Z" fill="#3A6AD6"/>
<path fill-rule="evenodd" clip-rule="evenodd" d="M32.1588 56.6211C31.9697 56.9096 31.8054 57.2994 31.8054 57.4596C31.8054 57.6038 31.9524 57.8438 32.0909 57.9256C32.318 58.0597 32.5931 58.0333 32.7925 57.8582C32.95 57.7199 32.9631 57.6877 32.9628 57.4361C32.9626 57.2863 32.93 57.1041 32.8904 57.0311C32.6104 56.5156 32.4727 56.3229 32.3824 56.3203C32.3681 56.3199 32.2675 56.4553 32.1588 56.6211ZM27.8565 57.1469C27.747 57.3101 27.6203 57.5609 27.5751 57.7043C27.5016 57.9376 27.5003 57.9861 27.5629 58.1658C27.6416 58.3915 27.8845 58.5868 28.0862 58.5866C28.2645 58.5863 28.5069 58.4245 28.6007 58.2431C28.7421 57.9696 28.6265 57.5552 28.2694 57.0552C28.1889 56.9424 28.1078 56.8502 28.0894 56.8502C28.0709 56.8502 27.9661 56.9837 27.8565 57.1469ZM36.5035 57.1201C36.0408 57.8434 36.0295 58.2993 36.469 58.5088C36.6732 58.6062 36.7877 58.607 36.9713 58.512C37.2718 58.3567 37.3773 58.0013 37.2287 57.6455C37.1252 57.3977 36.7754 56.8502 36.7206 56.8502C36.6961 56.8502 36.5985 56.9717 36.5035 57.1201ZM30.085 57.5858C29.7528 58.1105 29.6732 58.3109 29.6941 58.5696C29.7143 58.8196 29.7526 58.8839 29.9711 59.0349C30.2237 59.2095 30.6236 59.0868 30.7645 58.7914C30.8655 58.5797 30.8605 58.4485 30.7411 58.1687C30.627 57.9013 30.3033 57.3819 30.2503 57.3813C30.2308 57.381 30.1563 57.473 30.085 57.5858ZM34.3038 57.7292C33.9049 58.4001 33.8771 58.6522 34.171 58.9319C34.3906 59.1408 34.5767 59.1712 34.8377 59.0411C35.1786 58.8711 35.2171 58.4335 34.9361 57.9254C34.8511 57.7718 34.7665 57.6353 34.7478 57.622C34.7293 57.6087 34.6883 57.549 34.6569 57.4894C34.6255 57.4297 34.5798 57.3808 34.5553 57.3808C34.5309 57.3808 34.4178 57.5376 34.3038 57.7292ZM32.1913 58.6205C32.0205 58.6822 31.9523 58.8458 31.9511 59.1966C31.9499 59.602 31.9801 59.5799 31.3303 59.6522C31.0742 59.6807 30.7562 59.7336 30.6236 59.7698C29.9105 59.9645 30.0043 59.9315 29.4705 60.1759C27.9719 60.8619 26.8805 62.2981 26.5176 64.0617C26.4131 64.5689 26.4284 64.6017 26.6922 64.4363C27.27 64.074 28.0269 63.9113 28.7529 63.9934C29.129 64.036 29.2083 64.0573 29.5696 64.2132C29.6532 64.2492 29.7343 64.2787 29.7498 64.2787C29.7653 64.2787 29.8855 64.3449 30.0169 64.4258L30.2558 64.5728L30.5046 64.4467C30.7867 64.3038 31.4981 64.0611 31.7692 64.0155L31.9501 63.9849V66.4462C31.9501 68.5905 31.9401 68.9324 31.8729 69.1006C31.7285 69.4613 31.3147 69.594 31.0014 69.3798C30.8331 69.2648 30.7706 69.1456 30.7205 68.8438C30.6756 68.5734 30.5094 68.4271 30.2472 68.4271C30.1016 68.4271 29.9991 68.4586 29.9194 68.5278C29.8169 68.6168 29.8037 68.6684 29.8048 68.974C29.8058 69.2555 29.831 69.3687 29.941 69.5848C30.1061 69.9093 30.3699 70.1712 30.6797 70.3182C31.0085 70.4743 31.634 70.476 31.9592 70.3216C32.255 70.1811 32.5032 69.9594 32.6556 69.6995C32.906 69.2721 32.9136 69.1772 32.9142 66.4847L32.9148 63.9875L33.0475 64.0149C33.4714 64.1025 33.7514 64.197 34.2133 64.4082L34.5712 64.5718L34.8404 64.4089C35.2449 64.1641 35.5954 64.0439 36.0502 63.9938C36.7932 63.9119 37.5586 64.0745 38.1244 64.4344L38.3415 64.5724L38.3583 64.4633C38.424 64.0368 37.7441 62.2631 37.3665 61.8755C37.3323 61.8404 37.3044 61.7937 37.3044 61.7717C37.3044 61.7275 36.4738 60.8746 36.3082 60.7488C35.8685 60.4147 35.2842 60.1173 34.6755 59.9175C34.041 59.7093 34.0143 59.703 33.6384 59.6703C33.4394 59.6531 33.1952 59.6184 33.0957 59.5934L32.9148 59.5478V59.2819C32.9148 58.7627 32.5985 58.4735 32.1913 58.6205ZM26.3326 59.178C26.2808 59.264 26.1923 59.4114 26.136 59.5055C26.0797 59.5996 25.994 59.7869 25.9455 59.9218C25.8643 60.1475 25.8632 60.182 25.9316 60.3534C26.0371 60.6178 26.2119 60.7333 26.5068 60.7333C26.7187 60.7333 26.7656 60.714 26.8891 60.5758C27.1411 60.2938 27.0559 59.8028 26.6576 59.2418C26.5838 59.1378 26.5017 59.0457 26.4752 59.0371C26.4486 59.0286 26.3845 59.0919 26.3326 59.178ZM38.16 59.232C37.7684 59.8519 37.6873 60.1283 37.8169 60.4014C38.0012 60.7899 38.4777 60.8712 38.7543 60.5614C38.9678 60.3223 38.9536 60.0211 38.7079 59.5703C38.5282 59.2407 38.3724 59.0208 38.3187 59.021C38.3047 59.021 38.2333 59.116 38.16 59.232Z" fill="white"/>
</g>
<defs>
<clipPath id="clip0_142_407">
<rect width="98.3131" height="98.3131" fill="white" transform="translate(0.103027 0.885864)"/>
</clipPath>
</defs>
</svg>