<svg width="13" height="13" viewBox="0 0 13 13" fill="none" xmlns="http://www.w3.org/2000/svg">
<rect width="12.3866" height="12.3866" fill="white"/>
<g clip-path="url(#clip0_142_1319)">
<path d="M10.8383 8.47449V10.2994C10.8383 10.4301 10.7888 10.5559 10.6997 10.6515C10.6106 10.7471 10.4886 10.8054 10.3583 10.8145C10.1327 10.83 9.94849 10.8383 9.80604 10.8383C5.24521 10.8383 1.54834 7.14139 1.54834 2.58055C1.54834 2.43811 1.55608 2.25386 1.57208 2.02832C1.58123 1.89797 1.63947 1.77595 1.73507 1.68687C1.83066 1.59779 1.95649 1.54828 2.08716 1.54834H3.91211C3.97612 1.54828 4.03788 1.57201 4.08538 1.61493C4.13288 1.65785 4.16273 1.71689 4.16913 1.78059C4.181 1.89929 4.19184 1.99374 4.20216 2.06548C4.30473 2.78128 4.51492 3.47746 4.82562 4.13042C4.87465 4.23364 4.84265 4.35699 4.74975 4.42305L3.63599 5.21889C4.31697 6.80563 5.58148 8.07014 7.16822 8.75112L7.96303 7.63943C7.99551 7.59401 8.04291 7.56143 8.09695 7.54738C8.151 7.53333 8.20826 7.53869 8.25876 7.56253C8.91164 7.87264 9.60764 8.08231 10.3232 8.18444C10.3949 8.19476 10.4894 8.20611 10.607 8.21747C10.6706 8.22399 10.7296 8.25389 10.7724 8.30138C10.8152 8.34886 10.8388 8.41055 10.8388 8.47449H10.8383Z" fill="#3A6AD6"/>
</g>
<defs>
<clipPath id="clip0_142_1319">
<rect width="12.3866" height="12.3866" fill="white"/>
</clipPath>
</defs>
</svg>
