<svg width="39" height="39" viewBox="0 0 39 39" fill="none" xmlns="http://www.w3.org/2000/svg">
<path d="M27.7045 0H11.2956C9.72521 0 8.45752 1.27338 8.45752 2.84094V36.1619C8.45752 37.728 9.72521 39 11.2956 39H27.7045C29.2721 39 30.5426 37.728 30.5426 36.1619V2.84094C30.5426 1.27338 29.2721 0 27.7045 0ZM15.4511 1.72531H23.5519C23.7565 1.72531 23.9228 2.03087 23.9228 2.4089C23.9228 2.78693 23.7565 3.09391 23.5519 3.09391H15.4511C15.2451 3.09391 15.0816 2.78693 15.0816 2.4089C15.0816 2.03087 15.2451 1.72531 15.4511 1.72531ZM19.5015 36.196C18.5024 36.196 17.6895 35.3831 17.6895 34.3826C17.6895 33.3821 18.5024 32.572 19.5015 32.572C20.4977 32.572 21.3107 33.3821 21.3107 34.3826C21.3107 35.3831 20.4977 36.196 19.5015 36.196ZM28.4166 29.9869H10.585V4.79364H28.4166V29.9869Z" fill="white"/>
</svg>
