<svg width="346" height="379" viewBox="0 0 346 379" fill="none" xmlns="http://www.w3.org/2000/svg">
    <path d="M25.7218 362.195C26.8578 361.249 27.763 360.462 28.4375 359.835C29.112 359.196 29.6741 358.533 30.1238 357.847C30.5734 357.16 30.7983 356.486 30.7983 355.823C30.7983 355.22 30.6563 354.746 30.3723 354.403C30.0883 354.06 29.6504 353.888 29.0588 353.888C28.4671 353.888 28.0115 354.09 27.692 354.492C27.3725 354.882 27.2068 355.421 27.195 356.107H24.781C24.8283 354.687 25.2484 353.61 26.0413 352.877C26.8459 352.143 27.8636 351.776 29.0943 351.776C30.4433 351.776 31.4787 352.137 32.2005 352.859C32.9223 353.569 33.2833 354.51 33.2833 355.681C33.2833 356.604 33.0348 357.486 32.5378 358.326C32.0408 359.166 31.4728 359.9 30.8338 360.527C30.1948 361.142 29.3605 361.888 28.331 362.763H33.5673V364.822H24.7988V362.976L25.7218 362.195ZM35.1331 358.361C35.1331 356.314 35.5 354.711 36.2336 353.551C36.9791 352.392 38.2098 351.812 39.9256 351.812C41.6415 351.812 42.8662 352.392 43.5999 353.551C44.3454 354.711 44.7181 356.314 44.7181 358.361C44.7181 360.42 44.3454 362.036 43.5999 363.207C42.8662 364.379 41.6415 364.964 39.9256 364.964C38.2098 364.964 36.9791 364.379 36.2336 363.207C35.5 362.036 35.1331 360.42 35.1331 358.361ZM42.2686 358.361C42.2686 357.486 42.2095 356.752 42.0911 356.16C41.9846 355.557 41.7598 355.066 41.4166 354.687C41.0853 354.309 40.5883 354.119 39.9256 354.119C39.263 354.119 38.76 354.309 38.4169 354.687C38.0855 355.066 37.8607 355.557 37.7424 356.16C37.6359 356.752 37.5826 357.486 37.5826 358.361C37.5826 359.261 37.6359 360.018 37.7424 360.633C37.8489 361.237 38.0737 361.728 38.4169 362.107C38.76 362.474 39.263 362.657 39.9256 362.657C40.5883 362.657 41.0912 362.474 41.4344 362.107C41.7775 361.728 42.0024 361.237 42.1089 360.633C42.2154 360.018 42.2686 359.261 42.2686 358.361ZM46.6082 358.361C46.6082 356.314 46.9751 354.711 47.7087 353.551C48.4542 352.392 49.6849 351.812 51.4007 351.812C53.1166 351.812 54.3413 352.392 55.075 353.551C55.8205 354.711 56.1932 356.314 56.1932 358.361C56.1932 360.42 55.8205 362.036 55.075 363.207C54.3413 364.379 53.1166 364.964 51.4007 364.964C49.6849 364.964 48.4542 364.379 47.7087 363.207C46.9751 362.036 46.6082 360.42 46.6082 358.361ZM53.7437 358.361C53.7437 357.486 53.6846 356.752 53.5662 356.16C53.4597 355.557 53.2349 355.066 52.8917 354.687C52.5604 354.309 52.0634 354.119 51.4007 354.119C50.7381 354.119 50.2351 354.309 49.892 354.687C49.5606 355.066 49.3358 355.557 49.2175 356.16C49.111 356.752 49.0577 357.486 49.0577 358.361C49.0577 359.261 49.111 360.018 49.2175 360.633C49.324 361.237 49.5488 361.728 49.892 362.107C50.2351 362.474 50.7381 362.657 51.4007 362.657C52.0634 362.657 52.5663 362.474 52.9095 362.107C53.2526 361.728 53.4775 361.237 53.584 360.633C53.6905 360.018 53.7437 359.261 53.7437 358.361ZM68.3301 365L65.2771 355.06H65.2061C65.2179 355.297 65.2357 355.652 65.2593 356.125C65.283 356.598 65.3067 357.107 65.3303 357.651C65.354 358.184 65.3658 358.669 65.3658 359.107V365H62.9696V352.326H66.6261L69.6258 362.018H69.6791L72.8563 352.326H76.5128V365H74.0101V359C74.0101 358.598 74.016 358.137 74.0278 357.616C74.0515 357.095 74.0692 356.604 74.0811 356.143C74.1047 355.669 74.1225 355.314 74.1343 355.078H74.0633L70.7973 365H68.3301ZM85.0747 365L82.0217 355.06H81.9507C81.9625 355.297 81.9803 355.652 82.0039 356.125C82.0276 356.598 82.0513 357.107 82.0749 357.651C82.0986 358.184 82.1104 358.669 82.1104 359.107V365H79.7142V352.326H83.3707L86.3704 362.018H86.4237L89.6009 352.326H93.2575V365H90.7547V359C90.7547 358.598 90.7606 358.137 90.7725 357.616C90.7961 357.095 90.8139 356.604 90.8257 356.143C90.8494 355.669 90.8671 355.314 90.8789 355.078H90.8079L87.5419 365H85.0747Z" fill="white"/>
    <path d="M268.65 356.291C268.532 355.794 268.325 355.421 268.029 355.172C267.745 354.924 267.331 354.8 266.787 354.8C265.97 354.8 265.367 355.131 264.976 355.794C264.597 356.445 264.402 357.51 264.39 358.989C264.674 358.515 265.088 358.149 265.633 357.888C266.177 357.616 266.769 357.48 267.408 357.48C268.177 357.48 268.857 357.646 269.449 357.977C270.041 358.308 270.502 358.793 270.834 359.432C271.165 360.06 271.331 360.817 271.331 361.704C271.331 362.545 271.159 363.296 270.816 363.959C270.484 364.61 269.993 365.118 269.343 365.485C268.692 365.852 267.917 366.036 267.017 366.036C265.787 366.036 264.816 365.763 264.106 365.219C263.408 364.675 262.917 363.917 262.633 362.947C262.361 361.965 262.225 360.758 262.225 359.326C262.225 357.16 262.598 355.527 263.343 354.427C264.089 353.315 265.266 352.758 266.875 352.758C268.118 352.758 269.082 353.096 269.769 353.77C270.455 354.445 270.851 355.285 270.958 356.291H268.65ZM266.84 359.521C266.213 359.521 265.686 359.705 265.26 360.071C264.834 360.438 264.621 360.971 264.621 361.669C264.621 362.367 264.816 362.917 265.207 363.32C265.609 363.722 266.171 363.923 266.893 363.923C267.532 363.923 268.035 363.728 268.402 363.337C268.78 362.947 268.97 362.42 268.97 361.758C268.97 361.071 268.786 360.527 268.42 360.125C268.065 359.722 267.538 359.521 266.84 359.521ZM275.46 359.148C274.277 358.533 273.685 357.581 273.685 356.291C273.685 355.652 273.845 355.072 274.164 354.551C274.496 354.019 274.987 353.599 275.638 353.291C276.3 352.971 277.105 352.812 278.052 352.812C278.998 352.812 279.797 352.971 280.448 353.291C281.11 353.599 281.602 354.019 281.921 354.551C282.252 355.072 282.418 355.652 282.418 356.291C282.418 356.942 282.258 357.515 281.939 358.012C281.619 358.498 281.193 358.876 280.661 359.148C281.312 359.432 281.82 359.847 282.187 360.391C282.554 360.935 282.738 361.58 282.738 362.326C282.738 363.13 282.53 363.834 282.116 364.438C281.714 365.03 281.158 365.485 280.448 365.805C279.738 366.124 278.939 366.284 278.052 366.284C277.164 366.284 276.365 366.124 275.655 365.805C274.957 365.485 274.401 365.03 273.987 364.438C273.584 363.834 273.383 363.13 273.383 362.326C273.383 361.58 273.567 360.935 273.934 360.391C274.3 359.835 274.809 359.421 275.46 359.148ZM280.004 356.646C280.004 356.066 279.827 355.616 279.472 355.297C279.128 354.977 278.655 354.817 278.052 354.817C277.46 354.817 276.987 354.977 276.632 355.297C276.288 355.616 276.117 356.072 276.117 356.663C276.117 357.196 276.294 357.622 276.649 357.941C277.016 358.261 277.484 358.421 278.052 358.421C278.62 358.421 279.087 358.261 279.454 357.941C279.821 357.61 280.004 357.178 280.004 356.646ZM278.052 360.231C277.377 360.231 276.827 360.403 276.401 360.746C275.987 361.089 275.78 361.58 275.78 362.219C275.78 362.811 275.981 363.296 276.383 363.675C276.797 364.042 277.353 364.225 278.052 364.225C278.75 364.225 279.3 364.036 279.702 363.657C280.105 363.278 280.306 362.799 280.306 362.219C280.306 361.592 280.099 361.107 279.685 360.764C279.27 360.409 278.726 360.231 278.052 360.231ZM284.7 359.361C284.7 357.314 285.067 355.711 285.801 354.551C286.546 353.392 287.777 352.812 289.493 352.812C291.209 352.812 292.433 353.392 293.167 354.551C293.913 355.711 294.285 357.314 294.285 359.361C294.285 361.42 293.913 363.036 293.167 364.207C292.433 365.379 291.209 365.964 289.493 365.964C287.777 365.964 286.546 365.379 285.801 364.207C285.067 363.036 284.7 361.42 284.7 359.361ZM291.836 359.361C291.836 358.486 291.777 357.752 291.658 357.16C291.552 356.557 291.327 356.066 290.984 355.687C290.652 355.309 290.155 355.119 289.493 355.119C288.83 355.119 288.327 355.309 287.984 355.687C287.653 356.066 287.428 356.557 287.31 357.16C287.203 357.752 287.15 358.486 287.15 359.361C287.15 360.261 287.203 361.018 287.31 361.633C287.416 362.237 287.641 362.728 287.984 363.107C288.327 363.474 288.83 363.657 289.493 363.657C290.155 363.657 290.658 363.474 291.002 363.107C291.345 362.728 291.57 362.237 291.676 361.633C291.783 361.018 291.836 360.261 291.836 359.361ZM306.422 366L303.369 356.06H303.298C303.31 356.297 303.328 356.652 303.351 357.125C303.375 357.598 303.399 358.107 303.422 358.651C303.446 359.184 303.458 359.669 303.458 360.107V366H301.062V353.326H304.718L307.718 363.018H307.771L310.948 353.326H314.605V366H312.102V360C312.102 359.598 312.108 359.137 312.12 358.616C312.144 358.095 312.161 357.604 312.173 357.143C312.197 356.669 312.215 356.314 312.226 356.078H312.155L308.889 366H306.422ZM323.167 366L320.114 356.06H320.043C320.055 356.297 320.072 356.652 320.096 357.125C320.12 357.598 320.143 358.107 320.167 358.651C320.191 359.184 320.202 359.669 320.202 360.107V366H317.806V353.326H321.463L324.462 363.018H324.516L327.693 353.326H331.349V366H328.847V360C328.847 359.598 328.853 359.137 328.864 358.616C328.888 358.095 328.906 357.604 328.918 357.143C328.941 356.669 328.959 356.314 328.971 356.078H328.9L325.634 366H323.167Z" fill="white"/>
    <path d="M0.639 173.35V171.06H4.91675V184H2.36075V173.35H0.639ZM7.06991 173.35V171.06H11.3477V184H8.79166V173.35H7.06991ZM13.8026 177.361C13.8026 175.314 14.1694 173.711 14.9031 172.551C15.6486 171.392 16.8792 170.812 18.5951 170.812C20.3109 170.812 21.5357 171.392 22.2693 172.551C23.0148 173.711 23.3876 175.314 23.3876 177.361C23.3876 179.42 23.0148 181.036 22.2693 182.207C21.5357 183.379 20.3109 183.964 18.5951 183.964C16.8792 183.964 15.6486 183.379 14.9031 182.207C14.1694 181.036 13.8026 179.42 13.8026 177.361ZM20.9381 177.361C20.9381 176.486 20.8789 175.752 20.7606 175.16C20.6541 174.557 20.4292 174.066 20.0861 173.687C19.7547 173.309 19.2577 173.119 18.5951 173.119C17.9324 173.119 17.4295 173.309 17.0863 173.687C16.755 174.066 16.5301 174.557 16.4118 175.16C16.3053 175.752 16.2521 176.486 16.2521 177.361C16.2521 178.261 16.3053 179.018 16.4118 179.633C16.5183 180.237 16.7431 180.728 17.0863 181.107C17.4295 181.474 17.9324 181.657 18.5951 181.657C19.2577 181.657 19.7606 181.474 20.1038 181.107C20.447 180.728 20.6718 180.237 20.7783 179.633C20.8848 179.018 20.9381 178.261 20.9381 177.361ZM25.2777 177.361C25.2777 175.314 25.6445 173.711 26.3782 172.551C27.1237 171.392 28.3543 170.812 30.0702 170.812C31.786 170.812 33.0107 171.392 33.7444 172.551C34.4899 173.711 34.8627 175.314 34.8627 177.361C34.8627 179.42 34.4899 181.036 33.7444 182.207C33.0107 183.379 31.786 183.964 30.0702 183.964C28.3543 183.964 27.1237 183.379 26.3782 182.207C25.6445 181.036 25.2777 179.42 25.2777 177.361ZM32.4132 177.361C32.4132 176.486 32.354 175.752 32.2357 175.16C32.1292 174.557 31.9043 174.066 31.5612 173.687C31.2298 173.309 30.7328 173.119 30.0702 173.119C29.4075 173.119 28.9046 173.309 28.5614 173.687C28.2301 174.066 28.0052 174.557 27.8869 175.16C27.7804 175.752 27.7272 176.486 27.7272 177.361C27.7272 178.261 27.7804 179.018 27.8869 179.633C27.9934 180.237 28.2182 180.728 28.5614 181.107C28.9046 181.474 29.4075 181.657 30.0702 181.657C30.7328 181.657 31.2357 181.474 31.5789 181.107C31.9221 180.728 32.1469 180.237 32.2534 179.633C32.3599 179.018 32.4132 178.261 32.4132 177.361ZM46.9995 184L43.9465 174.06H43.8755C43.8873 174.297 43.9051 174.652 43.9288 175.125C43.9524 175.598 43.9761 176.107 43.9998 176.651C44.0234 177.184 44.0353 177.669 44.0353 178.107V184H41.639V171.326H45.2955L48.2953 181.018H48.3485L51.5258 171.326H55.1823V184H52.6795V178C52.6795 177.598 52.6854 177.137 52.6973 176.616C52.7209 176.095 52.7387 175.604 52.7505 175.143C52.7742 174.669 52.7919 174.314 52.8038 174.078H52.7328L49.4668 184H46.9995ZM63.7441 184L60.6911 174.06H60.6201C60.632 174.297 60.6497 174.652 60.6734 175.125C60.697 175.598 60.7207 176.107 60.7444 176.651C60.768 177.184 60.7799 177.669 60.7799 178.107V184H58.3836V171.326H62.0401L65.0399 181.018H65.0931L68.2704 171.326H71.9269V184H69.4241V178C69.4241 177.598 69.43 177.137 69.4419 176.616C69.4656 176.095 69.4833 175.604 69.4951 175.143C69.5188 174.669 69.5366 174.314 69.5484 174.078H69.4774L66.2114 184H63.7441Z" fill="white"/>
    <path d="M94.4393 314.158C95.0251 314.744 95.9749 314.744 96.5607 314.158L106.107 304.612C106.692 304.026 106.692 303.076 106.107 302.491C105.521 301.905 104.571 301.905 103.985 302.491L95.5 310.976L87.0147 302.491C86.4289 301.905 85.4792 301.905 84.8934 302.491C84.3076 303.076 84.3076 304.026 84.8934 304.612L94.4393 314.158ZM96.5607 0.842102C95.9749 0.256317 95.0251 0.256317 94.4393 0.842102L84.8934 10.3881C84.3076 10.9738 84.3076 11.9236 84.8934 12.5094C85.4792 13.0952 86.4289 13.0952 87.0147 12.5094L95.5 4.02408L103.985 12.5094C104.571 13.0952 105.521 13.0952 106.107 12.5094C106.692 11.9236 106.692 10.9738 106.107 10.3881L96.5607 0.842102ZM97 313.097L97 1.90277H94L94 313.097H97Z" fill="white"/>
    <path d="M176.608 371.442C176.299 372.211 176.673 373.084 177.442 373.392L189.973 378.415C190.742 378.723 191.615 378.35 191.923 377.581C192.231 376.812 191.858 375.939 191.089 375.631L179.95 371.166L184.415 360.027C184.723 359.258 184.35 358.385 183.581 358.077C182.812 357.769 181.939 358.142 181.631 358.911L176.608 371.442ZM345.392 301.558C345.701 300.789 345.327 299.916 344.558 299.608L332.027 294.585C331.258 294.277 330.385 294.65 330.077 295.419C329.769 296.188 330.142 297.061 330.911 297.369L342.05 301.834L337.585 312.973C337.277 313.742 337.65 314.615 338.419 314.923C339.188 315.231 340.061 314.858 340.369 314.089L345.392 301.558ZM178.59 373.379L344.59 302.379L343.41 299.621L177.41 370.621L178.59 373.379Z" fill="white"/>
    <path d="M146.238 367.981C147.056 367.85 147.612 367.08 147.481 366.262L145.34 352.933C145.209 352.115 144.439 351.558 143.621 351.69C142.803 351.821 142.247 352.591 142.378 353.409L144.281 365.257L132.433 367.16C131.615 367.291 131.058 368.061 131.19 368.879C131.321 369.697 132.091 370.253 132.909 370.122L146.238 367.981ZM89.7621 324.519C88.9442 324.65 88.3876 325.42 88.519 326.238L90.6599 339.567C90.7913 340.385 91.5609 340.942 92.3788 340.81C93.1968 340.679 93.7533 339.909 93.622 339.091L91.7189 327.243L103.567 325.34C104.385 325.209 104.942 324.439 104.81 323.621C104.679 322.803 103.909 322.247 103.091 322.378L89.7621 324.519ZM146.879 365.285L90.879 324.785L89.121 327.215L145.121 367.715L146.879 365.285Z" fill="white"/>
</svg>
