<svg width="59" height="44" viewBox="0 0 59 44" fill="none" xmlns="http://www.w3.org/2000/svg">
<path d="M29.4582 29.5289L38.3737 37.7067C41.6737 40.735 43.3265 42.2503 45.0562 41.8798C46.7832 41.5115 47.3772 39.5192 48.5625 35.5324L55.135 13.4175C56.9638 7.27644 57.8768 4.20813 55.8473 2.69283C53.8178 1.17753 50.3005 2.30458 43.266 4.55645L10.6343 15.0127C5.0078 16.8164 2.19454 17.7171 2.01579 19.2657C1.99474 19.4235 1.99474 19.5827 2.01579 19.7405C2.18904 21.2913 4.9968 22.1987 10.6178 24.0157C13.1616 24.8388 14.4348 25.2515 15.3478 26.0391C15.4505 26.1278 15.5495 26.2195 15.6449 26.3142C16.4864 27.1572 16.8439 28.2665 17.5616 30.4763L18.9064 34.6184C19.6021 36.7704 19.9514 37.8486 20.8671 37.9951C21.7829 38.1415 22.5776 37.2496 24.1699 35.4637L29.4582 29.5289ZM29.4582 29.5289L28.5864 28.7968C27.5909 27.9582 27.0932 27.5411 27.0932 27.0219C27.0932 26.5028 27.5882 26.0834 28.5864 25.247L38.4122 16.985" stroke="white" stroke-width="4" stroke-linecap="round" stroke-linejoin="round"/>
</svg>
