<svg width="85" height="83" viewBox="0 0 85 83" fill="none" xmlns="http://www.w3.org/2000/svg">
<path d="M81.1364 20.75H64.7159V19.09C64.7159 8.549 54.767 0 42.5 0C30.233 0 20.2841 8.549 20.2841 19.09V20.75H3.86364C1.72656 20.75 0 22.2336 0 24.07V79.68C0 81.5164 1.72656 83 3.86364 83H81.1364C83.2734 83 85 81.5164 85 79.68V24.07C85 22.2336 83.2734 20.75 81.1364 20.75ZM28.9773 19.09C28.9773 12.6679 35.0263 7.47 42.5 7.47C49.9737 7.47 56.0227 12.6679 56.0227 19.09V20.75H28.9773V19.09ZM76.3068 75.53H8.69318V28.22H20.2841V37.35C20.2841 37.8065 20.7188 38.18 21.25 38.18H28.0114C28.5426 38.18 28.9773 37.8065 28.9773 37.35V28.22H56.0227V37.35C56.0227 37.8065 56.4574 38.18 56.9886 38.18H63.75C64.2812 38.18 64.7159 37.8065 64.7159 37.35V28.22H76.3068V75.53Z" fill="white"/>
</svg>
