<svg width="90" height="90" viewBox="0 0 90 90" fill="none" xmlns="http://www.w3.org/2000/svg">
<path fill-rule="evenodd" clip-rule="evenodd" d="M45 11.25C38.7868 11.25 33.75 16.2868 33.75 22.5C33.75 28.7132 38.7868 33.75 45 33.75C51.2132 33.75 56.25 28.7132 56.25 22.5C56.25 16.2868 51.2132 11.25 45 11.25ZM26.25 22.5C26.25 12.1447 34.6447 3.75 45 3.75C55.3553 3.75 63.75 12.1447 63.75 22.5C63.75 32.8553 55.3553 41.25 45 41.25C34.6447 41.25 26.25 32.8553 26.25 22.5ZM7.5 82.5C7.5 61.7894 24.2894 45 45 45C65.7106 45 82.5 61.7894 82.5 82.5C82.5 84.5711 80.8211 86.25 78.75 86.25C76.6789 86.25 75 84.5711 75 82.5C75 67.7107 64.2983 55.4209 50.2164 52.9519L56.0842 72.0222C56.4492 73.2084 56.2036 74.4984 55.4283 75.4676L47.9283 84.8426C47.2166 85.7322 46.1392 86.25 45 86.25C43.8608 86.25 42.7834 85.7322 42.0717 84.8426L34.5717 75.4676C33.7964 74.4984 33.5508 73.2084 33.9158 72.0222L39.7836 52.9519C25.7017 55.4209 15 67.7107 15 82.5C15 84.5711 13.3211 86.25 11.25 86.25C9.17893 86.25 7.5 84.5711 7.5 82.5ZM45 61.5014L41.6676 72.3316L45 76.4971L48.3324 72.3316L45 61.5014Z" fill="white"/>
</svg>
