<svg width="73" height="73" viewBox="0 0 73 73" fill="none" xmlns="http://www.w3.org/2000/svg">
<path d="M56.0417 3H67.2083C67.9487 3 68.6588 3.33614 69.1823 3.93447C69.7059 4.5328 70 5.34431 70 6.19048V12.9702C70 15.403 69.1544 17.7361 67.6492 19.4563C66.144 21.1765 64.1026 22.1429 61.974 22.1429H56.0417M56.0417 3H8.58333V41.2857C8.58333 45.5165 10.0539 49.5741 12.6716 52.5658C15.2893 55.5574 18.8397 57.2381 22.5417 57.2381H42.0833C43.9164 57.2381 45.7315 56.8255 47.425 56.0238C49.1185 55.2221 50.6572 54.0471 51.9534 52.5658C53.2495 51.0844 54.2777 49.3259 54.9792 47.3904C55.6806 45.455 56.0417 43.3806 56.0417 41.2857V3ZM3 70H61.625" stroke="white" stroke-width="6" stroke-linecap="round" stroke-linejoin="round"/>
</svg>
