<svg width="39" height="39" viewBox="0 0 39 39" fill="none" xmlns="http://www.w3.org/2000/svg">
<g clip-path="url(#clip0_4_259)">
<path d="M38.8425 20.0996C34.4582 27.8639 27.227 32.5 19.5001 32.5C11.7732 32.5 4.54196 27.8639 0.157707 20.0996C-0.051918 19.7275 -0.051918 19.2741 0.157707 18.902C4.54196 11.1361 11.7732 6.50001 19.5001 6.50001C27.227 6.50001 34.4582 11.1361 38.8425 18.9004C39.0521 19.2725 39.0521 19.7275 38.8425 20.0996ZM19.5001 13C15.9153 13 13.0001 15.9153 13.0001 19.5C13.0001 23.0848 15.9153 26 19.5001 26C23.0848 26 26.0001 23.0848 26.0001 19.5C26.0001 15.9153 23.0848 13 19.5001 13Z" fill="white"/>
<path d="M37.375 26C36.478 26 35.75 26.728 35.75 27.625V34.125C35.75 35.0204 35.0204 35.75 34.125 35.75H27.625C26.728 35.75 26 36.478 26 37.375C26 38.272 26.728 39 27.625 39H34.125C36.8128 39 39 36.8127 39 34.125V27.625C39 26.728 38.272 26 37.375 26Z" fill="white"/>
<path d="M1.625 26C0.728 26 0 26.728 0 27.625V34.125C0 36.8127 2.18725 39 4.875 39H11.375C12.272 39 13 38.272 13 37.375C13 36.478 12.272 35.75 11.375 35.75H4.875C3.97963 35.75 3.25 35.0204 3.25 34.125V27.625C3.25 26.728 2.522 26 1.625 26Z" fill="white"/>
<path d="M34.125 -1.90735e-06H27.625C26.728 -1.90735e-06 26 0.727998 26 1.625C26 2.522 26.728 3.25 27.625 3.25H34.125C35.0204 3.25 35.75 3.97962 35.75 4.875V11.375C35.75 12.272 36.478 13 37.375 13C38.272 13 39 12.272 39 11.375V4.875C39 2.18725 36.8128 -1.90735e-06 34.125 -1.90735e-06Z" fill="white"/>
<path d="M11.375 -1.90735e-06H4.875C2.18725 -1.90735e-06 0 2.18725 0 4.875V11.375C0 12.272 0.728 13 1.625 13C2.522 13 3.25 12.272 3.25 11.375V4.875C3.25 3.97962 3.97963 3.25 4.875 3.25H11.375C12.272 3.25 13 2.522 13 1.625C13 0.727998 12.272 -1.90735e-06 11.375 -1.90735e-06Z" fill="white"/>
</g>
<defs>
<clipPath id="clip0_4_259">
<rect width="39" height="39" fill="white" transform="matrix(1 0 0 -1 0 39)"/>
</clipPath>
</defs>
</svg>
