<svg width="91" height="79" viewBox="0 0 91 79" fill="none" xmlns="http://www.w3.org/2000/svg">
<path d="M67.8063 19.1349C67.8063 18.3307 67.4678 17.5594 66.8652 16.9907C66.2627 16.422 65.4454 16.1025 64.5933 16.1025C63.7411 16.1025 62.9239 16.422 62.3213 16.9907C61.7187 17.5594 61.3802 18.3307 61.3802 19.1349V24.1888H56.0251C55.1729 24.1888 54.3557 24.5083 53.7531 25.077C53.1505 25.6456 52.812 26.4169 52.812 27.2211C52.812 28.0254 53.1505 28.7967 53.7531 29.3653C54.3557 29.934 55.1729 30.2535 56.0251 30.2535H61.3802V35.3074C61.3802 36.1116 61.7187 36.8829 62.3213 37.4516C62.9239 38.0203 63.7411 38.3398 64.5933 38.3398C65.4454 38.3398 66.2627 38.0203 66.8652 37.4516C67.4678 36.8829 67.8063 36.1116 67.8063 35.3074V30.2535H73.1614C74.0136 30.2535 74.8309 29.934 75.4334 29.3653C76.036 28.7967 76.3745 28.0254 76.3745 27.2211C76.3745 26.4169 76.036 25.6456 75.4334 25.077C74.8309 24.5083 74.0136 24.1888 73.1614 24.1888H67.8063V19.1349Z" fill="white"/>
<path fill-rule="evenodd" clip-rule="evenodd" d="M91 28.3518C91 15.0131 84.7273 5.05914 74.9586 1.43771C65.9221 -1.91904 55.074 0.591503 45.5 9.08162C35.926 0.591503 25.0779 -1.91904 16.0414 1.43771C6.27265 5.05914 0 15.0131 0 28.3478C0 36.8459 4.78279 45.2037 10.738 52.3984C16.7567 59.6694 24.3245 66.1783 30.6395 71.035L31.2067 71.4761C36.2857 75.3863 39.9596 78.2137 45.5 78.2137C51.0447 78.2137 54.71 75.3863 59.7934 71.4761L60.3605 71.035C66.6755 66.1824 74.2433 59.6694 80.262 52.3984C86.2172 45.2037 91 36.8459 91 28.3518ZM47.8194 15.3941C56.7586 6.33446 66.0237 4.5819 72.6476 7.03629C79.2843 9.4987 84.6512 16.7015 84.6512 28.3518C84.6512 34.8126 80.9265 41.8429 75.2634 48.6848C69.6594 55.4624 62.498 61.6465 56.3607 66.3668C50.4648 70.8986 48.5601 72.194 45.5 72.194C42.4399 72.194 40.5352 70.8986 34.6393 66.3628C28.502 61.6465 21.3406 55.4584 15.7367 48.6888C10.0693 41.843 6.34884 34.8126 6.34884 28.3518C6.34884 16.7015 11.7157 9.50271 18.3524 7.03629C24.9763 4.5819 34.2414 6.33446 43.1806 15.3941C43.4775 15.6952 43.8367 15.9353 44.2357 16.0995C44.6347 16.2636 45.065 16.3483 45.5 16.3483C45.935 16.3483 46.3653 16.2636 46.7643 16.0995C47.1633 15.9353 47.5225 15.6952 47.8194 15.3941Z" fill="white"/>
</svg>
