<svg width="12" height="12" viewBox="0 0 12 12" fill="none" xmlns="http://www.w3.org/2000/svg">
<rect width="11.8235" height="11.8235" fill="white"/>
<g clip-path="url(#clip0_142_1318)">
<path d="M1.478 1.47797H10.3456C10.4763 1.47797 10.6016 1.52987 10.694 1.62226C10.7864 1.71465 10.8383 1.83996 10.8383 1.97061V9.85297C10.8383 9.98362 10.7864 10.1089 10.694 10.2013C10.6016 10.2937 10.4763 10.3456 10.3456 10.3456H1.478C1.34734 10.3456 1.22203 10.2937 1.12964 10.2013C1.03726 10.1089 0.985352 9.98362 0.985352 9.85297V1.97061C0.985352 1.83996 1.03726 1.71465 1.12964 1.62226C1.22203 1.52987 1.34734 1.47797 1.478 1.47797ZM5.94138 5.75562L2.78253 3.07316L2.14455 3.82395L5.94778 7.05325L9.68254 3.82149L9.03816 3.07611L5.94187 5.75562H5.94138Z" fill="#3A6AD6"/>
</g>
<defs>
<clipPath id="clip0_142_1318">
<rect width="11.8235" height="11.8235" fill="white"/>
</clipPath>
</defs>
</svg>
