<svg width="39" height="39" viewBox="0 0 39 39" fill="none" xmlns="http://www.w3.org/2000/svg">
<g clip-path="url(#clip0_4_249)">
<path d="M37.8574 0H33.2109C32.5794 0 32.0684 0.511037 32.0684 1.14258V2.28516H22.7173C22.244 0.95809 20.9876 0 19.5 0C18.0124 0 16.756 0.95809 16.2827 2.28516H6.93164V1.14258C6.93164 0.511037 6.4206 0 5.78906 0H1.14258C0.511037 0 0 0.511037 0 1.14258V5.71289C0 6.34443 0.511037 6.85547 1.14258 6.85547H5.78906C6.4206 6.85547 6.93164 6.34443 6.93164 5.71289V4.55508H11.6241C7.65885 7.03226 5.04425 11.3831 4.73172 16.2562C3.36078 16.7049 2.36133 17.9811 2.36133 19.5C2.36133 21.3901 3.89893 22.9277 5.78906 22.9277C7.67919 22.9277 9.2168 21.3901 9.2168 19.5C9.2168 18.0421 8.29809 16.8025 7.01238 16.3079C7.40223 10.8749 11.1932 6.29576 16.4663 4.98926C17.0366 6.092 18.1751 6.85547 19.5 6.85547C20.8249 6.85547 21.9634 6.092 22.5337 4.98926C27.8068 6.29568 31.5978 10.8748 31.9876 16.3078C30.7019 16.8025 29.7832 18.0421 29.7832 19.5C29.7832 21.3901 31.3208 22.9277 33.2109 22.9277C35.1011 22.9277 36.6387 21.3901 36.6387 19.5C36.6387 17.9811 35.6392 16.7049 34.2683 16.2562C33.9557 11.3831 31.3411 7.0475 27.3759 4.57031H32.0684V5.71289C32.0684 6.34443 32.5794 6.85547 33.2109 6.85547H37.8574C38.489 6.85547 39 6.34443 39 5.71289V1.14258C39 0.511037 38.489 0 37.8574 0Z" fill="white"/>
<path d="M27.2734 37.5828C26.6758 35.754 24.954 34.3535 22.9278 34.3535H16.0723C14.0462 34.3535 12.3244 35.754 11.7267 37.5828C11.4963 38.2879 12.0962 39 12.8381 39H26.1621C26.9039 39 27.5038 38.2879 27.2734 37.5828Z" fill="white"/>
<path d="M29.5913 23.4366L20.6426 10.0135V20.8531C21.9697 21.3263 22.9277 22.5827 22.9277 24.0703C22.9277 25.9605 21.3901 27.4981 19.5 27.4981C17.6099 27.4981 16.0723 25.9605 16.0723 24.0703C16.0723 22.5827 17.0304 21.3263 18.3574 20.8531V10.0135L9.40876 23.4366C9.10636 23.8896 9.16661 24.4932 9.55158 24.8782C11.6491 26.9757 12.9899 29.6779 13.5073 32.5765C14.3011 32.2545 15.1643 32.0684 16.0723 32.0684H22.9277C23.8357 32.0684 24.699 32.2545 25.4927 32.5764C26.0101 29.6776 27.3509 26.9757 29.4484 24.8782C29.8334 24.4932 29.8937 23.8896 29.5913 23.4366Z" fill="white"/>
<path d="M19.5 22.9277C18.8696 22.9277 18.3574 23.4399 18.3574 24.0703C18.3574 24.7007 18.8696 25.2129 19.5 25.2129C20.1304 25.2129 20.6426 24.7007 20.6426 24.0703C20.6426 23.4399 20.1304 22.9277 19.5 22.9277Z" fill="white"/>
</g>
<defs>
<clipPath id="clip0_4_249">
<rect width="39" height="39" fill="white"/>
</clipPath>
</defs>
</svg>
