<svg width="78" height="78" viewBox="0 0 78 78" fill="none" xmlns="http://www.w3.org/2000/svg">
<path d="M51.3186 35.2294C51.2566 32.2217 51.3568 29.2137 51.3124 26.206C51.2178 19.6563 51.1245 13.1062 51.0327 6.55552C51.0158 5.32856 50.8915 3.89685 49.8616 3.23056C49.2374 2.82642 48.4429 2.82833 47.6997 2.84785C42.9423 2.97261 38.1978 2.76595 33.4462 3.0327C31.6092 3.13565 30.1583 3.71315 30.091 5.74647C29.9547 9.85483 30.1713 36.4564 30.2823 38.6857C30.3206 39.4863 30.0619 42.7806 30.7871 43.5575C31.2322 44.034 36.0788 43.732 36.3777 43.6279C36.8936 43.4484 38.3769 40.187 39.858 38.714C38.5082 38.7855 33.3294 39.1732 33.0458 38.5119C32.7623 37.8506 32.6983 9.44112 32.5483 7.39135C37.8769 7.48473 43.2057 7.43957 48.5347 7.25587C48.7732 17.6119 48.3587 26.0778 48.5508 32.7598C48.5891 34.1288 48.9997 36.6393 48.2045 37.8364C47.7697 38.4909 46.9033 38.4488 46.1256 38.4423C45.5087 38.4384 42.7853 38.6505 42.6541 38.6198C43.0368 38.709 43.1589 39.1885 43.1516 39.5793C43.1325 40.8717 42.5217 42.0696 41.9943 43.2494C41.6935 43.9226 42.1558 43.8755 42.6809 43.8725C43.2059 43.8694 47.0904 43.8047 48.5007 43.6582C49.666 43.5372 50.5761 43.7056 50.9837 42.4993C51.7051 40.3665 51.3645 37.4641 51.3186 35.2294Z" fill="#3A6AD6"/>
<path d="M40.8794 58.6592C38.5671 58.2359 35.8196 58.4422 33.7056 59.6003C35.3654 56.9979 36.8663 54.2806 38.3363 51.5703C39.8495 48.7819 41.4025 45.9636 42.5327 42.9977C42.9988 41.773 43.7547 40.14 43.1833 38.8388C42.703 37.742 41.4316 37.5674 40.45 38.0883C39.499 38.5935 38.8086 39.5839 38.192 40.4443C36.8788 42.3651 35.6735 44.3575 34.5816 46.4122C34.1533 45.0494 32.3975 44.3172 31.3504 45.3077C30.8314 43.964 29.2795 43.1129 28.0113 43.9032C27.9053 43.2248 27.5726 42.6024 27.0675 42.1373C26.3993 41.5996 25.4751 41.6502 24.7077 41.9242C23.2864 42.4324 21.2083 44.2028 20.1501 45.2564C17.476 47.9117 15.5381 51.2165 14.5266 54.8467C14.0375 56.6389 13.7723 58.6481 14.3084 60.4545C13.8247 61.0611 13.3859 61.7023 12.9958 62.373C12.4908 62.1408 11.9806 61.923 11.4649 61.7197C9.29307 64.6914 7.16675 67.6976 5.16252 70.7849C4.23445 72.2139 3.19043 73.827 5.20883 74.8902C7.10705 75.8898 24.4647 75.7076 25.216 74.6762C25.3562 74.4819 25.4486 74.2572 25.4854 74.0204C25.5223 73.7837 25.5026 73.5415 25.428 73.3138C25.2225 72.6728 23.441 70.3949 22.9664 69.8507C23.3662 69.3573 23.7052 68.8177 23.976 68.2433C24.0288 68.1109 23.852 67.993 23.7406 68.0627C23.2114 68.3937 22.609 69.476 22.609 69.476C22.609 69.476 16.886 64.2268 13.318 62.5253C13.7421 62.0492 14.1375 61.5482 14.5021 61.0251C14.571 61.1938 14.6464 61.3603 14.7317 61.5226C14.7541 61.5592 14.7889 61.5866 14.8297 61.5998C14.8706 61.613 14.9148 61.6111 14.9544 61.5945C14.9939 61.5779 15.0262 61.5476 15.0454 61.5092C15.0646 61.4708 15.0694 61.4268 15.0589 61.3852C13.8878 57.9516 14.9441 54.2462 16.5312 51.1168C18.0285 48.1542 20.197 45.5822 22.8639 43.6058C23.6576 43.0191 24.56 42.3452 25.5738 42.2468C26.7854 42.1293 27.5095 43.2705 27.5367 44.39C27.5383 44.4415 27.5548 44.4915 27.5841 44.5339C27.6134 44.5763 27.6544 44.6093 27.702 44.629C27.7496 44.6487 27.802 44.6543 27.8527 44.645C27.9034 44.6357 27.9503 44.612 27.9879 44.5767C28.9849 43.6307 30.6699 44.1653 30.9807 45.938C30.996 45.9869 31.0249 46.0303 31.0642 46.0632C31.1034 46.0961 31.1512 46.1171 31.202 46.1237C31.2528 46.1303 31.3044 46.1221 31.3507 46.1003C31.397 46.0784 31.4361 46.0438 31.4633 46.0004C31.624 45.7285 31.8774 45.5237 32.177 45.4237C32.4766 45.3237 32.8022 45.3353 33.094 45.4562C34.0351 45.8389 34.1384 46.8668 34.2804 46.9908C33.8069 47.9071 33.3839 48.8485 33.0132 49.811C32.9535 49.9675 33.2084 50.0735 33.2838 49.9258C34.3879 47.757 38.541 39.7584 40.6456 38.5812C41.3027 38.2135 42.2089 38.1771 42.6356 38.9031C43.031 39.5767 42.827 40.3934 42.6226 41.0941C41.1301 46.2178 35.8981 54.7789 32.9378 59.8643C32.8831 59.9581 32.823 60.4724 33.4809 60.138C35.5418 59.0874 40.3731 58.4058 42.4883 59.7897C42.9931 60.12 43.4875 60.9531 42.7145 61.102C41.4818 61.34 37.1269 62.4859 35.1036 63.2023C33.1269 63.9026 31.394 64.9471 29.5827 65.98C27.5945 67.1139 25.0518 68.1021 22.8945 66.8059C22.8341 66.7703 22.762 66.7603 22.6942 66.7778C22.6264 66.7954 22.5683 66.8392 22.5328 66.8996C22.4973 66.96 22.4872 67.032 22.5048 67.0999C22.5224 67.1677 22.5662 67.2258 22.6266 67.2613C24.5619 68.4213 26.9049 67.9272 28.8191 66.9865C29.924 66.4438 30.9168 65.6983 32.0216 65.1579C37.3849 62.5375 40.7198 62.4051 42.6146 61.717C43.385 61.4372 43.9724 60.7449 43.4355 59.947C42.8985 59.149 41.7677 58.8222 40.8794 58.6592Z" fill="black"/>
<path d="M52.5888 20.5557C53.2168 23.005 52.8184 25.3801 54.0174 27.6943C54.7878 29.1823 55.9895 30.4204 56.3975 32.0874C56.7547 33.7403 56.5122 35.4664 55.7136 36.957C55.6888 36.9993 55.6819 37.0497 55.6943 37.0972C55.7067 37.1446 55.7375 37.1852 55.7798 37.21C55.8221 37.2347 55.8726 37.2417 55.92 37.2292C55.9674 37.2168 56.008 37.1861 56.0328 37.1437C56.1897 36.9261 56.3294 36.6965 56.4507 36.4572C56.7186 36.7905 58.2352 38.223 58.6723 38.6474C58.7982 38.7695 58.9762 38.5858 58.8636 38.456C58.4633 37.9907 57.0462 36.2823 56.6646 35.9826C57.0751 34.9013 57.2001 33.7325 57.0278 32.5888C56.7599 30.79 55.6749 29.4594 54.7672 27.9492C52.859 24.7727 54.1682 20.4321 51.911 18.0444C51.7197 17.8431 51.3618 18.1083 51.5222 18.3471C52.0048 19.0149 52.3658 19.7625 52.5888 20.5557Z" fill="black"/>
<path d="M51.5858 47.0608C51.8208 47.2139 52.1136 46.848 51.8889 46.6674C51.3179 46.2119 50.7182 45.7937 50.0936 45.4151C50.5787 45.278 51.0206 45.0187 51.3768 44.662C51.5047 44.5043 51.3902 44.2303 51.1637 44.2976C50.5896 44.4679 50.0894 44.8663 49.5058 45.0527C48.5792 45.3328 47.6062 45.4256 46.6434 45.3257C45.6806 45.2258 44.7473 44.9353 43.898 44.471C43.7973 44.4174 43.6607 44.5629 43.7648 44.6448C44.8488 45.4705 46.1785 45.9084 47.541 45.8886C48.2518 45.8338 48.9573 45.7241 49.6512 45.5606C49.6512 45.5606 50.9008 46.6188 51.5858 47.0608Z" fill="black"/>
<path d="M73.238 48.5741C71.5863 45.5935 69.1477 42.8889 66.6937 40.551C66.3221 40.197 62.8575 36.6217 62.6803 36.7748C57.9575 40.8607 53.8347 45.5922 50.4337 50.8297C49.6166 52.0884 49.6951 52.6246 50.5508 53.6973C53.0114 56.7815 55.709 59.6688 58.619 62.3331C60.6761 64.2172 63.7515 67.3692 66.7642 67.0687C68.7098 66.8747 70.4313 65.5957 71.5331 63.9811C72.6253 62.3806 73.2392 60.4529 73.6808 58.5589C74.4118 55.4272 74.8588 51.4987 73.238 48.5741ZM57.0323 54.1845C56.5103 54.2921 54.7361 54.1914 54.4888 52.6223C54.4476 52.2216 54.5353 51.8182 54.739 51.4706C54.9427 51.1231 55.2519 50.8495 55.6217 50.6897C56.3775 50.3357 57.1356 50.553 57.8031 51.0827C58.3974 51.5592 59.2379 53.7283 57.0323 54.1845Z" fill="black"/>
<path d="M35.0732 22.5996H39.9492V17.7237H35.0732V22.5996ZM36.2922 18.9426H38.7302V21.3806H36.2922V18.9426Z" fill="#3A6AD6"/>
<path d="M35.0732 28.6946H39.9492V23.8186H35.0732V28.6946ZM36.2922 25.0376H38.7302V27.4756H36.2922V25.0376Z" fill="#3A6AD6"/>
<path d="M41.1682 17.7237V22.5996H46.0442V17.7237H41.1682ZM44.8252 21.3806H42.3872V18.9426H44.8252V21.3806Z" fill="#3A6AD6"/>
<path d="M46.0442 27.4756H44.8252V28.6946H46.0442V27.4756Z" fill="#3A6AD6"/>
<path d="M42.3872 23.8186H41.1682V25.0376H42.3872V23.8186Z" fill="#3A6AD6"/>
<path d="M43.6062 25.0376H42.3872V26.2566H43.6062V25.0376Z" fill="#3A6AD6"/>
<path d="M42.3872 26.2566H41.1682V27.4756H42.3872V26.2566Z" fill="#3A6AD6"/>
<path d="M43.6062 27.4756H42.3872V28.6946H43.6062V27.4756Z" fill="#3A6AD6"/>
<path d="M44.8252 26.2566H43.6062V27.4756H44.8252V26.2566Z" fill="#3A6AD6"/>
<path d="M44.8252 23.8186H43.6062V25.0376H44.8252V23.8186Z" fill="#3A6AD6"/>
<path d="M46.0442 25.0376H44.8252V26.2566H46.0442V25.0376Z" fill="#3A6AD6"/>
</svg>
