<svg width="39" height="39" viewBox="0 0 39 39" fill="none" xmlns="http://www.w3.org/2000/svg">
<g clip-path="url(#clip0_7_772)">
<path d="M38.0413 23.624L35.4933 19.8069L31.4308 22.5125L33.9836 26.3264C34.0698 26.4449 34.1202 26.5857 34.1288 26.732C34.1374 26.8783 34.104 27.024 34.0324 27.1519C33.952 27.3001 33.8318 27.4228 33.6854 27.5064C33.539 27.5899 33.3721 27.6309 33.2036 27.6248H23.5755V21.9389L15.9819 28.8646C15.8148 29.0169 15.6814 29.2024 15.5901 29.4091C15.4988 29.6159 15.4517 29.8395 15.4517 30.0655C15.4517 30.2915 15.4988 30.5151 15.5901 30.7219C15.6814 30.9286 15.8148 31.1141 15.9819 31.2664L23.5755 38.1889V32.5014H33.2036C34.2539 32.5058 35.2856 32.2246 36.1884 31.6879C37.0911 31.1513 37.831 30.3792 38.3289 29.4545C38.814 28.5479 39.0435 27.5264 38.9929 26.4994C38.9422 25.4724 38.6133 24.4785 38.0413 23.624V23.624Z" fill="black"/>
<path d="M18.3626 5.30454C18.4442 5.17217 18.5586 5.06304 18.6946 4.98762C18.8306 4.91221 18.9838 4.87305 19.1393 4.87392C19.2963 4.86355 19.4532 4.89583 19.5934 4.96735C19.7336 5.03886 19.8518 5.14695 19.9356 5.28017L25.0251 12.9112L20.3126 15.8654L30.212 18.6279C30.4298 18.6885 30.6577 18.703 30.8814 18.6705C31.105 18.638 31.3194 18.5592 31.5108 18.4391C31.7023 18.3191 31.8666 18.1604 31.9933 17.9733C32.12 17.7862 32.2062 17.5747 32.2466 17.3523L34.0763 7.23342L29.1558 10.3209L23.9916 2.57942C23.4626 1.76241 22.7318 1.09567 21.8698 0.643628C21.0079 0.191586 20.0439 -0.030471 19.0711 -0.00108148C18.1032 0.00857011 17.1534 0.261233 16.3086 0.733704C15.4639 1.20617 14.7515 1.88331 14.2367 2.70292L12.3208 5.72217L16.4369 8.33517L18.3626 5.30454Z" fill="black"/>
<path d="M10.1773 18.2164L14.6249 21.3787L13.3834 11.1786C13.356 10.9542 13.2821 10.738 13.1664 10.5438C13.0507 10.3496 12.8957 10.1816 12.7115 10.0507C12.5272 9.91981 12.3176 9.82879 12.0961 9.78347C11.8747 9.73816 11.6462 9.73955 11.4253 9.78756L1.3844 11.9699L6.19765 15.3824L0.882279 23.7674C0.335355 24.6235 0.031336 25.6122 0.00271425 26.6277C-0.0259075 27.6432 0.221944 28.6474 0.719779 29.5329C1.22514 30.4386 1.96389 31.1924 2.85921 31.716C3.75454 32.2395 4.77375 32.5137 5.8109 32.5099L11.3847 32.5002L11.3749 27.6252L5.80603 27.6349C5.64133 27.6397 5.47848 27.5992 5.33521 27.5178C5.19195 27.4365 5.07376 27.3173 4.99353 27.1734C4.91922 27.0502 4.88159 26.9082 4.88504 26.7643C4.8885 26.6204 4.93289 26.4805 5.01303 26.3609L10.1773 18.2164Z" fill="black"/>
</g>
<defs>
<clipPath id="clip0_7_772">
<rect width="39" height="39" fill="white"/>
</clipPath>
</defs>
</svg>
