<svg width="67" height="87" viewBox="0 0 67 87" fill="none" xmlns="http://www.w3.org/2000/svg">
<path fill-rule="evenodd" clip-rule="evenodd" d="M30.76 2.00996C32.2733 0.496679 34.7268 0.496679 36.2401 2.00996L51.7401 17.51C52.6208 18.3907 53.0245 19.6412 52.825 20.8707C52.6255 22.1002 51.8471 23.1589 50.733 23.7159L47.7917 25.1866L59.4901 36.885C60.4397 37.8346 60.8299 39.2082 60.5214 40.5153C60.2128 41.8224 59.2495 42.8765 57.9754 43.3011L51.9631 45.3053L65.4428 60.2828C66.4665 61.4202 66.7249 63.0536 66.1024 64.4515C65.4798 65.8494 64.0928 66.75 62.5625 66.75H43.5944L44.7569 78.375H47.0625C49.2026 78.375 50.9375 80.1099 50.9375 82.25C50.9375 84.3901 49.2026 86.125 47.0625 86.125H41.2929C41.2611 86.1254 41.2295 86.1254 41.1979 86.125H25.8021C25.7706 86.1254 25.7389 86.1254 25.7072 86.125H19.9375C17.7974 86.125 16.0625 84.3901 16.0625 82.25C16.0625 80.1099 17.7974 78.375 19.9375 78.375H22.2432L23.4057 66.75H4.43754C2.94797 66.75 1.59025 65.8962 0.944986 64.5536C0.299722 63.2111 0.481143 61.6175 1.41167 60.4543L13.6487 45.158L8.8109 43.2228C7.60151 42.7391 6.71607 41.6801 6.45417 40.4041C6.19227 39.1282 6.58895 37.806 7.51 36.885L19.2084 25.1866L16.2671 23.7159C15.153 23.1589 14.3746 22.1002 14.1751 20.8707C13.9756 19.6412 14.3792 18.3907 15.26 17.51L30.76 2.00996ZM27.7304 59C27.6986 58.9996 27.667 58.9996 27.6354 59H12.5L22.9634 45.9207C23.7298 44.9627 23.9973 43.6984 23.6845 42.5121C23.3718 41.3259 22.5157 40.3578 21.3767 39.9022L17.1455 38.2097L28.4901 26.865C29.3708 25.9843 29.7745 24.7338 29.575 23.5043C29.3755 22.2748 28.5971 21.2161 27.483 20.6591L24.5417 19.1884L33.5 10.2301L42.4584 19.1884L39.5171 20.6591C38.403 21.2161 37.6246 22.2748 37.4251 23.5043C37.2256 24.7338 37.6292 25.9843 38.51 26.865L49.5765 37.9316L43.8997 39.8239C42.6599 40.2371 41.712 41.2474 41.3784 42.5109C41.0448 43.7744 41.3706 45.1209 42.2448 46.0922L53.8618 59H39.3646C39.3331 58.9996 39.3014 58.9996 39.2697 59H27.7304ZM31.1944 66.75L30.0319 78.375H36.9682L35.8057 66.75H31.1944Z" fill="white"/>
</svg>
