<svg width="39" height="39" viewBox="0 0 39 39" fill="none" xmlns="http://www.w3.org/2000/svg">
<path d="M39 21.9375C38.9942 17.1906 37.2585 12.6085 34.1178 9.04901C30.9771 5.48957 26.6468 3.19682 21.9375 2.6V0H17.0625V2.6C12.3532 3.19682 8.0229 5.48957 4.88221 9.04901C1.74153 12.6085 0.00580936 17.1906 0 21.9375L0 24.375H17.0625V32.9062C17.0625 33.2295 16.9341 33.5395 16.7055 33.768C16.477 33.9966 16.167 34.125 15.8438 34.125C15.5205 34.125 15.2105 33.9966 14.982 33.768C14.7534 33.5395 14.625 33.2295 14.625 32.9062V32.5H9.75V32.9062C9.75 34.5224 10.392 36.0724 11.5348 37.2152C12.6776 38.358 14.2276 39 15.8438 39C17.4599 39 19.0099 38.358 20.1527 37.2152C21.2955 36.0724 21.9375 34.5224 21.9375 32.9062V24.375H39V21.9375ZM5.07812 19.5C5.6524 16.0904 7.41614 12.9945 10.0563 10.7618C12.6965 8.52908 16.0423 7.30402 19.5 7.30402C22.9577 7.30402 26.3035 8.52908 28.9437 10.7618C31.5839 12.9945 33.3476 16.0904 33.9219 19.5H5.07812Z" fill="white"/>
</svg>
