<svg width="120" height="120" viewBox="0 0 700 700" fill="none" xmlns="http://www.w3.org/2000/svg">
<ellipse cx="332.499" cy="350" rx="297.5" ry="291.667" fill="white"/>
<path fill-rule="evenodd" clip-rule="evenodd" d="M289.685 3.44539C183.478 22.832 95.0903 85.5235 42.521 178.763C27.2207 205.896 17.1955 231.241 7.81575 266.495C0.522026 293.9 0.16935 297.526 0.00926818 346.333C-0.170824 401.123 2.18037 418.373 15.2896 458.435C43.7516 545.417 108.887 620.895 190.522 661.494C276.556 704.283 364.298 711.349 457.576 683.001C484.682 674.763 532.862 649.962 556.554 632.049C630.794 575.917 675.622 506.212 694.279 417.884C701.348 384.423 701.978 318.676 695.545 285.802C686.458 239.359 666.897 191.752 641.007 153.049C623.183 126.407 581.526 83.8051 554.515 64.5956C512.394 34.644 456.24 11.1895 407.955 3.38054C379.906 -1.15622 314.695 -1.1188 289.685 3.44539ZM269.877 79.0563C284.229 100.383 285.363 113.143 273.924 124.551C267.939 130.519 264.502 131.841 254.972 131.841C238.756 131.841 228.709 122.079 228.709 106.329C228.709 97.2108 230.815 92.4122 241.405 77.4252C248.389 67.5411 255.097 60.0663 256.313 60.8145C257.526 61.5627 263.631 69.7708 269.877 79.0563ZM383.293 63.8773C406.672 96.6796 409.884 105.227 403.505 117.665C395.646 132.989 375.083 136.807 361.554 125.456C352.782 118.096 349.35 105.337 353.78 96.5623C358.14 87.9278 377.317 59.6423 378.858 59.5725C379.586 59.54 381.582 61.4754 383.293 63.8773ZM158.295 158.421C174.333 182.197 175.169 190.714 162.675 203.172C151.227 214.588 137.532 215.032 125.571 204.374C118.715 198.266 117.407 195.361 117.427 186.292C117.447 177.428 119.693 172.243 129.933 157.418C136.797 147.479 143.087 139.344 143.913 139.336C144.736 139.329 151.207 147.918 158.295 158.421ZM431.247 194.124C483.589 207.582 528.917 239.411 554.86 280.928L561.524 291.595L554.573 289.658C550.751 288.593 538.617 287.722 527.611 287.722C511.898 287.722 505.142 288.929 496.155 293.346C479.084 301.734 465.39 314.573 458.836 328.338L452.993 340.607L441.527 337.053C417.413 329.573 384.626 338.641 364.781 358.28C345.121 377.734 344.183 372.626 383.435 459.847C415.284 530.622 419.356 538.321 431.78 551.248C443.241 563.17 447.138 565.631 456.888 567.088C475.232 569.831 487.223 566.614 499.797 555.58C513.227 543.791 517.291 533.011 515.84 513.018C514.915 500.261 515.443 497.799 519.58 495.592C526.941 491.667 529.745 496.415 530.918 514.799C533.534 555.77 502.043 586.29 460.98 582.576C435.252 580.249 417.187 565.941 406.752 539.625C395.604 511.512 338.062 387.351 335.393 385.653C333.807 384.645 324.07 383.814 313.752 383.807C299.195 383.797 292.114 385.129 282.136 389.763C265.462 397.505 250.972 410.708 243.461 425.007C237.813 435.761 237.025 436.313 229.959 434.457C213.601 430.157 188.133 432.232 173.31 439.071C156.369 446.885 139.971 462.555 133.798 476.827L129.288 487.249L124.595 472.285C120.881 460.44 119.903 449.516 119.903 419.909C119.903 387.645 120.708 379.941 125.756 363.914C143.39 307.919 181.467 259.384 232.418 227.954C252.956 215.286 255.682 212.812 253.524 208.789C250.235 202.661 254.787 194.194 261.368 194.194C264.252 194.194 267.541 196.835 269.214 200.494C270.798 203.958 273.306 206.27 274.787 205.629C284.122 201.594 313.937 193.206 329.348 190.278C355.396 185.327 404.201 187.17 431.247 194.124Z" fill="#396AD5"/>
<path d="M383 63.5L376.5 62C377 61.3333 378.642 59.3211 379 59.5C381 60.5 382.5 62.5 383 63.5Z" fill="white"/>
</svg>
